<?xml version="1.0" encoding="UTF-8"?>
<svg width="65px" height="58px" viewBox="0 0 65 58" version="1.1" xmlns="http://www.w3.org/2000/svg" xmlns:xlink="http://www.w3.org/1999/xlink">
    <!-- Generator: Sketch 42 (36781) - http://www.bohemiancoding.com/sketch -->
    <title>Mail</title>
    <desc>Created with Sketch.</desc>
    <defs></defs>
    <g id="Page-1" stroke="none" stroke-width="1" fill="none" fill-rule="evenodd">
        <g id="25-Design-Shape-Icons" transform="translate(-316.000000, -590.000000)">
            <g id="Mail" transform="translate(316.000000, 590.000000)">
                <g id="BG">
                    <path d="M60.235,27.691 C60.235,12.504 47.923,0.191 32.735,0.191 C17.547,0.191 5.235,12.504 5.235,27.691 C5.235,37.087 9.95,45.378 17.139,50.338 L48.33,50.338 C55.52,45.378 60.235,37.087 60.235,27.691" id="Fill-613" fill="#EFEFF4"></path>
                    <path d="M50.529,51.089 L14.94,51.089 C14.526,51.089 14.19,50.753 14.19,50.339 C14.19,49.924 14.526,49.589 14.94,49.589 L50.529,49.589 C50.943,49.589 51.279,49.924 51.279,50.339 C51.279,50.753 50.943,51.089 50.529,51.089" id="Fill-614" fill="#2D346A"></path>
                    <path d="M44.359,54.324 L21.109,54.324 C20.695,54.324 20.359,53.988 20.359,53.574 C20.359,53.16 20.695,52.824 21.109,52.824 L44.359,52.824 C44.773,52.824 45.109,53.16 45.109,53.574 C45.109,53.988 44.773,54.324 44.359,54.324" id="Fill-615" fill="#EFEFF4"></path>
                    <path d="M33.049,57.559 L28.376,57.559 C27.962,57.559 27.626,57.223 27.626,56.809 C27.626,56.395 27.962,56.059 28.376,56.059 L33.049,56.059 C33.463,56.059 33.799,56.395 33.799,56.809 C33.799,57.223 33.463,57.559 33.049,57.559" id="Fill-616" fill="#EFEFF4"></path>
                    <path d="M37.149,57.559 L35.901,57.559 C35.487,57.559 35.151,57.223 35.151,56.809 C35.151,56.395 35.487,56.059 35.901,56.059 L37.149,56.059 C37.563,56.059 37.899,56.395 37.899,56.809 C37.899,57.223 37.563,57.559 37.149,57.559" id="Fill-617" fill="#EFEFF4"></path>
                    <path d="M58.406,8.078 C58.409,7.876 58.478,6.876 59.606,6.876 L59.609,6.876 L59.614,6.876 L59.615,6.876 L59.617,6.876 L59.618,6.876 C59.833,6.869 60.006,6.693 60.006,6.476 C60.006,6.255 59.828,6.077 59.608,6.075 C59.407,6.073 58.406,6.004 58.406,4.876 C58.406,4.654 58.227,4.476 58.006,4.476 C57.785,4.476 57.606,4.654 57.606,4.876 C57.606,6.004 56.606,6.073 56.404,6.075 C56.184,6.077 56.006,6.255 56.006,6.476 C56.006,6.697 56.185,6.876 56.406,6.876 C57.536,6.876 57.604,7.877 57.606,8.075 L57.606,8.078 C57.607,8.08 57.608,8.084 57.606,8.083 L57.606,8.087 C57.613,8.303 57.789,8.476 58.006,8.476 C58.227,8.476 58.405,8.297 58.406,8.078" id="Fill-625" fill="#EFEFF4"></path>
                    <path d="M55.406,30.102 C55.409,29.901 55.478,28.9 56.606,28.9 L56.609,28.9 L56.614,28.9 L56.615,28.9 L56.617,28.9 L56.618,28.9 C56.833,28.894 57.006,28.717 57.006,28.5 C57.006,28.28 56.828,28.101 56.608,28.1 C56.407,28.098 55.406,28.029 55.406,26.9 C55.406,26.679 55.227,26.5 55.006,26.5 C54.785,26.5 54.606,26.679 54.606,26.9 C54.606,28.029 53.606,28.098 53.404,28.1 C53.184,28.101 53.006,28.28 53.006,28.5 C53.006,28.721 53.185,28.9 53.406,28.9 C54.536,28.9 54.604,29.902 54.606,30.1 L54.606,30.102 C54.607,30.105 54.608,30.108 54.606,30.108 L54.606,30.11 L54.606,30.112 C54.613,30.327 54.789,30.5 55.006,30.5 C55.227,30.5 55.405,30.322 55.406,30.102" id="Fill-626" fill="#E4C95C"></path>
                    <path d="M27.776,7.078 C27.778,6.876 27.848,5.876 28.976,5.876 L28.979,5.876 L28.984,5.876 L28.985,5.876 L28.986,5.876 L28.988,5.876 C29.203,5.869 29.376,5.693 29.376,5.476 C29.376,5.255 29.198,5.077 28.978,5.075 C28.777,5.073 27.776,5.004 27.776,3.876 C27.776,3.654 27.597,3.476 27.376,3.476 C27.155,3.476 26.976,3.654 26.976,3.876 C26.976,5.004 25.975,5.073 25.774,5.075 C25.554,5.077 25.376,5.255 25.376,5.476 C25.376,5.697 25.555,5.876 25.776,5.876 C26.905,5.876 26.974,6.877 26.976,7.075 L26.976,7.078 C26.976,7.08 26.977,7.084 26.976,7.083 L26.976,7.087 C26.982,7.303 27.159,7.476 27.376,7.476 C27.596,7.476 27.775,7.297 27.776,7.078" id="Fill-627" fill="#E4C95C"></path>
                    <path d="M63.935,23.724 C63.936,23.623 63.97,23.123 64.535,23.123 L64.54,23.123 C64.648,23.12 64.735,23.032 64.735,22.923 C64.735,22.813 64.646,22.724 64.536,22.723 C64.435,22.722 63.935,22.687 63.935,22.123 C63.935,22.012 63.845,21.923 63.735,21.923 C63.624,21.923 63.535,22.012 63.535,22.123 C63.535,22.687 63.034,22.722 62.934,22.723 C62.824,22.724 62.735,22.813 62.735,22.923 C62.735,23.034 62.824,23.123 62.935,23.123 C63.499,23.123 63.534,23.624 63.535,23.723 L63.535,23.724 L63.535,23.727 L63.535,23.729 C63.538,23.836 63.626,23.923 63.735,23.923 C63.845,23.923 63.934,23.834 63.935,23.724" id="Fill-628" fill="#EFEFF4"></path>
                    <path d="M10.935,29.409 C10.936,29.309 10.97,28.808 11.535,28.808 L11.54,28.808 C11.648,28.805 11.735,28.717 11.735,28.608 C11.735,28.498 11.646,28.409 11.536,28.408 C11.435,28.407 10.935,28.373 10.935,27.808 C10.935,27.698 10.845,27.608 10.735,27.608 C10.624,27.608 10.535,27.698 10.535,27.808 C10.535,28.373 10.034,28.407 9.934,28.408 C9.824,28.409 9.735,28.498 9.735,28.608 C9.735,28.719 9.824,28.808 9.935,28.808 C10.499,28.808 10.534,29.309 10.535,29.408 L10.535,29.41 L10.535,29.412 L10.535,29.413 L10.535,29.414 C10.538,29.522 10.626,29.608 10.735,29.608 C10.845,29.608 10.934,29.519 10.935,29.409" id="Fill-629" fill="#E4C95C"></path>
                    <path d="M1.935,12.003 C1.936,11.902 1.97,11.402 2.535,11.402 L2.54,11.402 C2.648,11.399 2.735,11.31 2.735,11.202 C2.735,11.092 2.646,11.002 2.536,11.002 C2.435,11.001 1.935,10.966 1.935,10.402 C1.935,10.291 1.845,10.202 1.735,10.202 C1.624,10.202 1.535,10.291 1.535,10.402 C1.535,10.966 1.034,11.001 0.934,11.002 C0.824,11.002 0.735,11.092 0.735,11.202 C0.735,11.312 0.824,11.402 0.935,11.402 C1.499,11.402 1.534,11.903 1.535,12.002 L1.535,12.003 L1.535,12.006 L1.535,12.008 C1.538,12.115 1.626,12.202 1.735,12.202 C1.845,12.202 1.934,12.113 1.935,12.003" id="Fill-630" fill="#EFEFF4"></path>
                    <path d="M5.635,47.352 C5.637,47.151 5.706,46.15 6.835,46.15 L6.837,46.15 L6.842,46.15 L6.846,46.15 C7.062,46.144 7.235,45.967 7.235,45.75 C7.235,45.53 7.057,45.351 6.837,45.35 C6.636,45.348 5.635,45.279 5.635,44.15 C5.635,43.929 5.456,43.75 5.235,43.75 C5.014,43.75 4.835,43.929 4.835,44.15 C4.835,45.279 3.834,45.348 3.633,45.35 C3.413,45.351 3.235,45.53 3.235,45.75 C3.235,45.971 3.414,46.15 3.635,46.15 C4.764,46.15 4.832,47.152 4.835,47.35 L4.835,47.352 C4.835,47.355 4.836,47.358 4.835,47.358 L4.835,47.36 L4.835,47.362 C4.841,47.577 5.018,47.75 5.235,47.75 C5.455,47.75 5.634,47.572 5.635,47.352" id="Fill-631" fill="#EFEFF4"></path>
                </g>
                <g id="BG">
                    <path d="M60.235,27.691 C60.235,12.504 47.923,0.191 32.735,0.191 C17.547,0.191 5.235,12.504 5.235,27.691 C5.235,37.087 9.95,45.378 17.139,50.338 L48.33,50.338 C55.52,45.378 60.235,37.087 60.235,27.691" id="Fill-613" fill="#EFEFF4"></path>
                    <path d="M50.529,51.089 L14.94,51.089 C14.526,51.089 14.19,50.753 14.19,50.339 C14.19,49.924 14.526,49.589 14.94,49.589 L50.529,49.589 C50.943,49.589 51.279,49.924 51.279,50.339 C51.279,50.753 50.943,51.089 50.529,51.089" id="Fill-614" fill="#2D346A"></path>
                    <path d="M44.359,54.324 L21.109,54.324 C20.695,54.324 20.359,53.988 20.359,53.574 C20.359,53.16 20.695,52.824 21.109,52.824 L44.359,52.824 C44.773,52.824 45.109,53.16 45.109,53.574 C45.109,53.988 44.773,54.324 44.359,54.324" id="Fill-615" fill="#EFEFF4"></path>
                    <path d="M33.049,57.559 L28.376,57.559 C27.962,57.559 27.626,57.223 27.626,56.809 C27.626,56.395 27.962,56.059 28.376,56.059 L33.049,56.059 C33.463,56.059 33.799,56.395 33.799,56.809 C33.799,57.223 33.463,57.559 33.049,57.559" id="Fill-616" fill="#EFEFF4"></path>
                    <path d="M37.149,57.559 L35.901,57.559 C35.487,57.559 35.151,57.223 35.151,56.809 C35.151,56.395 35.487,56.059 35.901,56.059 L37.149,56.059 C37.563,56.059 37.899,56.395 37.899,56.809 C37.899,57.223 37.563,57.559 37.149,57.559" id="Fill-617" fill="#EFEFF4"></path>
                    <path d="M58.406,8.078 C58.409,7.876 58.478,6.876 59.606,6.876 L59.609,6.876 L59.614,6.876 L59.615,6.876 L59.617,6.876 L59.618,6.876 C59.833,6.869 60.006,6.693 60.006,6.476 C60.006,6.255 59.828,6.077 59.608,6.075 C59.407,6.073 58.406,6.004 58.406,4.876 C58.406,4.654 58.227,4.476 58.006,4.476 C57.785,4.476 57.606,4.654 57.606,4.876 C57.606,6.004 56.606,6.073 56.404,6.075 C56.184,6.077 56.006,6.255 56.006,6.476 C56.006,6.697 56.185,6.876 56.406,6.876 C57.536,6.876 57.604,7.877 57.606,8.075 L57.606,8.078 C57.607,8.08 57.608,8.084 57.606,8.083 L57.606,8.087 C57.613,8.303 57.789,8.476 58.006,8.476 C58.227,8.476 58.405,8.297 58.406,8.078" id="Fill-625" fill="#EFEFF4"></path>
                    <path d="M55.406,30.102 C55.409,29.901 55.478,28.9 56.606,28.9 L56.609,28.9 L56.614,28.9 L56.615,28.9 L56.617,28.9 L56.618,28.9 C56.833,28.894 57.006,28.717 57.006,28.5 C57.006,28.28 56.828,28.101 56.608,28.1 C56.407,28.098 55.406,28.029 55.406,26.9 C55.406,26.679 55.227,26.5 55.006,26.5 C54.785,26.5 54.606,26.679 54.606,26.9 C54.606,28.029 53.606,28.098 53.404,28.1 C53.184,28.101 53.006,28.28 53.006,28.5 C53.006,28.721 53.185,28.9 53.406,28.9 C54.536,28.9 54.604,29.902 54.606,30.1 L54.606,30.102 C54.607,30.105 54.608,30.108 54.606,30.108 L54.606,30.11 L54.606,30.112 C54.613,30.327 54.789,30.5 55.006,30.5 C55.227,30.5 55.405,30.322 55.406,30.102" id="Fill-626" fill="#E4C95C"></path>
                    <path d="M27.776,7.078 C27.778,6.876 27.848,5.876 28.976,5.876 L28.979,5.876 L28.984,5.876 L28.985,5.876 L28.986,5.876 L28.988,5.876 C29.203,5.869 29.376,5.693 29.376,5.476 C29.376,5.255 29.198,5.077 28.978,5.075 C28.777,5.073 27.776,5.004 27.776,3.876 C27.776,3.654 27.597,3.476 27.376,3.476 C27.155,3.476 26.976,3.654 26.976,3.876 C26.976,5.004 25.975,5.073 25.774,5.075 C25.554,5.077 25.376,5.255 25.376,5.476 C25.376,5.697 25.555,5.876 25.776,5.876 C26.905,5.876 26.974,6.877 26.976,7.075 L26.976,7.078 C26.976,7.08 26.977,7.084 26.976,7.083 L26.976,7.087 C26.982,7.303 27.159,7.476 27.376,7.476 C27.596,7.476 27.775,7.297 27.776,7.078" id="Fill-627" fill="#E4C95C"></path>
                    <path d="M63.935,23.724 C63.936,23.623 63.97,23.123 64.535,23.123 L64.54,23.123 C64.648,23.12 64.735,23.032 64.735,22.923 C64.735,22.813 64.646,22.724 64.536,22.723 C64.435,22.722 63.935,22.687 63.935,22.123 C63.935,22.012 63.845,21.923 63.735,21.923 C63.624,21.923 63.535,22.012 63.535,22.123 C63.535,22.687 63.034,22.722 62.934,22.723 C62.824,22.724 62.735,22.813 62.735,22.923 C62.735,23.034 62.824,23.123 62.935,23.123 C63.499,23.123 63.534,23.624 63.535,23.723 L63.535,23.724 L63.535,23.727 L63.535,23.729 C63.538,23.836 63.626,23.923 63.735,23.923 C63.845,23.923 63.934,23.834 63.935,23.724" id="Fill-628" fill="#EFEFF4"></path>
                    <path d="M10.935,29.409 C10.936,29.309 10.97,28.808 11.535,28.808 L11.54,28.808 C11.648,28.805 11.735,28.717 11.735,28.608 C11.735,28.498 11.646,28.409 11.536,28.408 C11.435,28.407 10.935,28.373 10.935,27.808 C10.935,27.698 10.845,27.608 10.735,27.608 C10.624,27.608 10.535,27.698 10.535,27.808 C10.535,28.373 10.034,28.407 9.934,28.408 C9.824,28.409 9.735,28.498 9.735,28.608 C9.735,28.719 9.824,28.808 9.935,28.808 C10.499,28.808 10.534,29.309 10.535,29.408 L10.535,29.41 L10.535,29.412 L10.535,29.413 L10.535,29.414 C10.538,29.522 10.626,29.608 10.735,29.608 C10.845,29.608 10.934,29.519 10.935,29.409" id="Fill-629" fill="#E4C95C"></path>
                    <path d="M1.935,12.003 C1.936,11.902 1.97,11.402 2.535,11.402 L2.54,11.402 C2.648,11.399 2.735,11.31 2.735,11.202 C2.735,11.092 2.646,11.002 2.536,11.002 C2.435,11.001 1.935,10.966 1.935,10.402 C1.935,10.291 1.845,10.202 1.735,10.202 C1.624,10.202 1.535,10.291 1.535,10.402 C1.535,10.966 1.034,11.001 0.934,11.002 C0.824,11.002 0.735,11.092 0.735,11.202 C0.735,11.312 0.824,11.402 0.935,11.402 C1.499,11.402 1.534,11.903 1.535,12.002 L1.535,12.003 L1.535,12.006 L1.535,12.008 C1.538,12.115 1.626,12.202 1.735,12.202 C1.845,12.202 1.934,12.113 1.935,12.003" id="Fill-630" fill="#EFEFF4"></path>
                    <path d="M5.635,47.352 C5.637,47.151 5.706,46.15 6.835,46.15 L6.837,46.15 L6.842,46.15 L6.846,46.15 C7.062,46.144 7.235,45.967 7.235,45.75 C7.235,45.53 7.057,45.351 6.837,45.35 C6.636,45.348 5.635,45.279 5.635,44.15 C5.635,43.929 5.456,43.75 5.235,43.75 C5.014,43.75 4.835,43.929 4.835,44.15 C4.835,45.279 3.834,45.348 3.633,45.35 C3.413,45.351 3.235,45.53 3.235,45.75 C3.235,45.971 3.414,46.15 3.635,46.15 C4.764,46.15 4.832,47.152 4.835,47.35 L4.835,47.352 C4.835,47.355 4.836,47.358 4.835,47.358 L4.835,47.36 L4.835,47.362 C4.841,47.577 5.018,47.75 5.235,47.75 C5.455,47.75 5.634,47.572 5.635,47.352" id="Fill-631" fill="#EFEFF4"></path>
                </g>
                <g id="email" transform="translate(9.000000, 16.000000)" fill-rule="nonzero">
                    <g id="Layer_1">
                        <g id="Group">
                            <path d="M28.0787149,21.1871486 L17.264257,21.1871486 C15.3028112,21.1871486 13.7036145,19.5879518 13.7036145,17.626506 L13.7036145,4.42650602 C13.7036145,2.46506024 15.3028112,0.865863454 17.264257,0.865863454 L38.8931727,0.865863454 C40.8546185,0.865863454 42.4538153,2.46506024 42.4538153,4.42650602 L42.4538153,17.626506 C42.4538153,19.5879518 40.8546185,21.1871486 38.8931727,21.1871486 L26.6385542,21.1871486" id="XMLID_1220_" fill="#FFDD09"></path>
                            <path d="M17.264257,21.9823293 L38.8931727,21.9823293 C41.2963855,21.9823293 43.248996,20.0297189 43.248996,17.6176707 L43.248996,4.42650602 C43.248996,2.02329317 41.2963855,0.0618473896 38.8931727,0.0618473896 L17.264257,0.0618473896 C14.8610442,0.0618473896 12.9084337,2.01445783 12.9084337,4.42650602 L12.9084337,17.626506 C12.8995984,20.0297189 14.8610442,21.9823293 17.264257,21.9823293 Z M14.5076305,4.42650602 C14.5076305,2.90682731 15.7445783,1.66987952 17.264257,1.66987952 L38.8931727,1.66987952 C40.4128514,1.66987952 41.6497992,2.90682731 41.6497992,4.42650602 L41.6497992,17.626506 C41.6497992,19.1461847 40.4128514,20.3831325 38.8931727,20.3831325 L26.6385542,20.3831325 L17.264257,20.3831325 C15.7445783,20.3831325 14.5076305,19.1461847 14.5076305,17.626506 L14.5076305,4.42650602 L14.5076305,4.42650602 Z" id="Shape" fill="#2D346A"></path>
                            <path d="M17.2907631,17.653012 C17.4497992,17.8297189 17.6706827,17.9269076 17.8915663,17.9269076 C18.0771084,17.9269076 18.2714859,17.8650602 18.4216867,17.7236948 L25.339759,11.6273092 L27.5839357,13.3678715 C27.7253012,13.4827309 27.902008,13.535743 28.0787149,13.535743 C28.2554217,13.535743 28.4232932,13.4827309 28.573494,13.3678715 L30.8883534,11.5742972 L37.735743,17.7148594 C37.8859438,17.8562249 38.0803213,17.9180723 38.2658635,17.9180723 C38.486747,17.9180723 38.7076305,17.8297189 38.8666667,17.653012 C39.1582329,17.3261044 39.1317269,16.8136546 38.8048193,16.5220884 L32.1783133,10.5759036 L38.7694779,5.46024096 C39.1228916,5.18634538 39.184739,4.68273092 38.9108434,4.33815261 C38.6369478,3.98473896 38.1333333,3.92289157 37.788755,4.19678715 L28.0787149,11.7333333 L25.7991968,9.95742972 L25.7991968,9.95742972 L18.3863454,4.20562249 C18.0329317,3.93172691 17.5381526,3.9935743 17.264257,4.34698795 C16.9903614,4.70040161 17.0522088,5.19518072 17.4056225,5.46907631 L24.0586345,10.637751 L17.3702811,16.5309237 C17.0257028,16.82249 16.9991968,17.3261044 17.2907631,17.653012 Z" id="Shape" fill="#2D346A"></path>
                            <path d="M10.3903614,11.8305221 C10.8321285,11.8305221 11.1943775,11.4682731 11.1943775,11.026506 C11.1943775,10.584739 10.8321285,10.22249 10.3903614,10.22249 L4.02891566,10.22249 C3.58714859,10.22249 3.2248996,10.584739 3.2248996,11.026506 C3.2248996,11.4682731 3.58714859,11.8305221 4.02891566,11.8305221 L10.3903614,11.8305221 Z" id="Shape" fill="#2D346A"></path>
                            <path d="M0.804016064,7.59839357 L10.3903614,7.59839357 C10.8321285,7.59839357 11.1943775,7.23614458 11.1943775,6.79437751 C11.1943775,6.35261044 10.8321285,5.99036145 10.3903614,5.99036145 L0.804016064,5.99036145 C0.362248996,5.99036145 0,6.35261044 0,6.79437751 C0.00883534137,7.23614458 0.362248996,7.59839357 0.804016064,7.59839357 Z" id="Shape" fill="#2D346A"></path>
                            <path d="M11.1943775,15.2586345 C11.1943775,14.8168675 10.8321285,14.4546185 10.3903614,14.4546185 L6.20240964,14.4546185 C5.76064257,14.4546185 5.39839357,14.8168675 5.39839357,15.2586345 C5.39839357,15.7004016 5.76064257,16.0626506 6.20240964,16.0626506 L10.3903614,16.0626506 C10.8321285,16.0626506 11.1943775,15.7004016 11.1943775,15.2586345 Z" id="Shape" fill="#2D346A"></path>
                        </g>
                    </g>
                </g>
                <path d="M21.3155114,18.4087332 C21.3155114,18.4087332 23.1298463,17.4658117 23.7476526,17.7087815 C24.3654588,17.9517512 24.31987,18.4799805 24.31987,18.4799805 C24.31987,18.4799805 24.5869913,18.2345196 24.7511597,18.1252136 C24.9153281,18.0159076 25.2379886,17.8686822 25.2379886,17.8686822 C25.2379886,17.8686822 24.4600747,17.8900776 24.4600747,17.1969567 C24.4600747,16.9225169 24.5369856,16.5642858 24.8968869,16.291382 C25.2567883,16.0184783 26.3980158,15.2001526 26.3980158,15.2001526 C26.3980158,15.2001526 24.4694757,15.927421 23.6602233,16.4383013 C22.8509709,16.9491817 21.3155114,18.4087332 21.3155114,18.4087332 Z" id="Path-2" fill="#EFEFF4"></path>
            </g>
        </g>
    </g>
</svg>