<?xml version="1.0" encoding="iso-8859-1"?>
<!-- Generator: Adobe Illustrator 19.0.0, SVG Export Plug-In . SVG Version: 6.00 Build 0)  -->
<svg xmlns="http://www.w3.org/2000/svg" xmlns:xlink="http://www.w3.org/1999/xlink" version="1.1" id="Capa_1" x="0px" y="0px" viewBox="0 0 512 512" style="enable-background:new 0 0 512 512;" xml:space="preserve" width="512px" height="512px">
<g>
	<g>
		<path d="M467,0C460.304,0,51.696,0,45,0C20.187,0,0,20.187,0,45c0,6.696,0,415.304,0,422c0,24.813,20.187,45,45,45    c6.696,0,415.304,0,422,0c24.813,0,45-20.187,45-45c0-6.696,0-415.304,0-422C512,20.187,491.813,0,467,0z M30,45    c0-8.271,6.729-15,15-15h196v47.895c-4.861-1.25-9.896-1.895-15-1.895c-33.084,0-60,26.916-60,60s26.916,60,60,60    c5.104,0,10.139-0.646,15-1.895V241c-10.221,0-61.206,0-71.4,0c-12.904,0-19.777,15.328-11.21,24.966    c4.907,5.521,7.61,12.636,7.61,20.034c0,16.542-13.458,30-30,30s-30-13.458-30-30c0-7.398,2.703-14.514,7.61-20.034    c8.483-9.543,1.856-24.966-11.21-24.966H30V45z M241,409.6V482H45c-8.271,0-15-6.729-15-15V270.9h47.895    C76.645,275.761,76,280.896,76,286c0,33.084,26.916,60,60,60s60-26.916,60-60c0-5.104-0.646-10.139-1.895-15H241    c0,10.221,0,61.206,0,71.4c0,13.096,15.46,19.664,24.965,11.212c5.603-4.98,12.53-7.612,20.035-7.612c16.542,0,30,13.458,30,30    s-13.458,30-30,30c-7.504,0-14.432-2.632-20.035-7.612C256.431,389.916,241,396.526,241,409.6z M482,467c0,8.271-6.729,15-15,15    H271v-47.896c4.861,1.25,9.896,1.896,15,1.896c33.084,0,60-26.916,60-60s-26.916-60-60-60c-5.104,0-10.139,0.645-15,1.895V271    h71.4c12.715,0,19.934-15.159,11.211-24.965C348.632,240.433,346,233.504,346,226c0-16.542,13.458-30,30-30s30,13.458,30,30    c0,7.504-2.632,14.433-7.611,20.035C389.685,255.819,396.878,271,409.6,271H482V467z M482,241h-47.896    c1.25-4.861,1.896-9.897,1.896-15c0-33.084-26.916-60-60-60s-60,26.916-60,60c0,5.103,0.646,10.139,1.896,15H271v-71.4    c0-12.723-15.162-19.92-24.966-11.21C240.513,163.297,233.398,166,226,166c-16.542,0-30-13.458-30-30s13.458-30,30-30    c7.398,0,14.514,2.703,20.034,7.61c9.76,8.675,24.966,1.551,24.966-11.21V30h196c8.271,0,15,6.729,15,15V241z" fill="#3c4858"/>
	</g>
</g>
<g>
</g>
<g>
</g>
<g>
</g>
<g>
</g>
<g>
</g>
<g>
</g>
<g>
</g>
<g>
</g>
<g>
</g>
<g>
</g>
<g>
</g>
<g>
</g>
<g>
</g>
<g>
</g>
<g>
</g>
</svg>
