<?xml version="1.0" encoding="UTF-8"?>
<svg width="538px" height="538px" viewBox="0 0 538 538" version="1.1" xmlns="http://www.w3.org/2000/svg" xmlns:xlink="http://www.w3.org/1999/xlink">
    <!-- Generator: Sketch 46.2 (44496) - http://www.bohemiancoding.com/sketch -->
    <title>add-plugin</title>
    <desc>Created with Sketch.</desc>
    <defs></defs>
    <g id="Page-1" stroke="none" stroke-width="1" fill="none" fill-rule="evenodd">
        <g id="add-plugin" transform="translate(13.000000, 13.000000)">
            <g id="Group" transform="translate(176.000000, 175.000000)" fill-rule="nonzero" fill="#3C4858">
                <rect id="Rectangle-path" x="69" y="0.976" width="24" height="160.08"></rect>
                <rect id="Rectangle-path" x="0.976" y="69" width="160.08" height="24"></rect>
            </g>
            <path d="M10,0 L502,0 L502,-1.77635684e-15 C507.522847,-2.79088747e-15 512,4.4771525 512,10 L512,310.784901 L512,502 L512,502 C512,507.522847 507.522847,512 502,512 L10,512 L10,512 C4.4771525,512 6.76353751e-16,507.522847 0,502 L0,10 L0,10 C-6.76353751e-16,4.4771525 4.4771525,1.01453063e-15 10,0 Z" id="Rectangle" stroke="#3C4858" stroke-width="25"></path>
        </g>
    </g>
</svg>