<?xml version="1.0" standalone="no"?>
<!DOCTYPE svg PUBLIC "-//W3C//DTD SVG 20010904//EN"
 "http://www.w3.org/TR/2001/REC-SVG-20010904/DTD/svg10.dtd">
<svg version="1.0" xmlns="http://www.w3.org/2000/svg"
 width="522.000000pt" height="522.000000pt" viewBox="0 0 522.000000 522.000000"
 preserveAspectRatio="xMidYMid meet">
<metadata>
Created by potrace 1.11, written by Peter Selinger 2001-2013
</metadata>
<g transform="translate(0.000000,522.000000) scale(0.100000,-0.100000)"
fill="#000000" stroke="none">
<path d="M2769 5126 c-2 -2 -33 -7 -69 -11 -36 -4 -78 -8 -95 -10 -52 -6 -227
-44 -300 -65 -38 -11 -77 -22 -85 -24 -157 -41 -541 -230 -624 -308 -11 -10
-23 -18 -26 -18 -4 0 -18 -9 -31 -20 -13 -11 -29 -23 -34 -27 -117 -89 -230
-198 -326 -313 -74 -88 -186 -249 -219 -313 -8 -16 -31 -41 -52 -55 -217 -152
-380 -305 -520 -488 -26 -34 -53 -73 -59 -88 -7 -14 -16 -26 -20 -26 -4 0 -14
-12 -22 -27 -7 -16 -24 -46 -37 -68 -91 -159 -183 -394 -205 -529 -3 -17 -8
-38 -10 -46 -28 -98 -40 -406 -22 -565 17 -148 71 -353 129 -485 6 -14 18 -41
26 -60 8 -19 19 -42 23 -50 5 -8 22 -41 39 -74 17 -32 56 -97 87 -143 l55 -84
-8 -77 c-11 -113 -11 -113 -18 -162 -3 -25 -8 -56 -11 -70 -3 -14 -8 -41 -11
-61 -4 -30 -47 -217 -57 -254 -28 -98 -78 -224 -120 -304 -38 -73 -107 -173
-127 -186 -18 -11 -10 -24 13 -19 12 3 33 7 47 9 14 2 41 7 60 11 19 3 42 7
50 8 9 1 21 5 28 10 6 4 12 5 12 3 0 -3 17 -1 38 4 20 5 48 12 62 15 14 3 33
7 42 10 9 3 25 6 35 8 99 20 438 127 538 171 17 7 55 23 85 35 30 12 101 46
157 76 102 53 130 62 149 45 8 -7 135 -52 229 -81 80 -24 221 -55 300 -65 22
-3 54 -8 70 -10 183 -29 518 -24 712 11 48 9 97 17 108 19 159 25 475 139 655
238 64 34 222 134 255 159 181 141 323 275 396 372 38 50 45 53 86 31 15 -8
44 -21 63 -29 19 -8 53 -22 75 -32 22 -9 65 -24 95 -34 30 -10 75 -26 99 -35
41 -15 195 -62 231 -70 8 -2 42 -11 75 -20 33 -9 69 -18 80 -20 11 -3 40 -9
65 -15 25 -5 57 -12 73 -15 26 -5 43 -8 97 -20 14 -3 46 -8 73 -12 l47 -5 -31
33 c-72 76 -151 225 -205 385 -20 59 -37 112 -38 118 -3 13 -19 88 -22 99 -1
4 -3 9 -4 12 -3 7 -5 13 -15 70 -4 28 -10 57 -12 65 -2 8 -5 31 -8 50 -2 19
-4 35 -5 35 -1 0 -3 16 -6 35 -2 19 -6 49 -9 65 -17 116 -17 163 1 194 10 17
22 31 26 31 4 0 8 6 8 13 0 7 13 31 29 53 95 129 229 463 257 639 3 22 7 42 9
46 18 28 27 405 12 519 -19 157 -69 350 -124 480 -49 114 -149 301 -165 308
-5 2 -8 8 -8 14 0 24 -155 214 -265 323 -115 116 -282 255 -304 255 -6 0 -11
3 -11 8 0 7 -60 45 -155 99 -86 49 -307 153 -325 153 -6 0 -18 4 -28 9 -28 16
-150 54 -247 78 -11 3 -60 13 -110 24 -86 17 -126 24 -225 36 -50 6 -466 14
-471 9z"/>
</g>
</svg>
