<?xml version="1.0" encoding="iso-8859-1"?>
<svg xmlns="http://www.w3.org/2000/svg" xmlns:xlink="http://www.w3.org/1999/xlink" version="1.1" id="Layer_1" x="0px" y="0px" viewBox="0 0 299.942 299.942" style="enable-background:new 0 0 299.942 299.942;" xml:space="preserve" width="512px" height="512px">
<g>
	<g>
		<g>
			<path d="M293.411,203.876h-13.04V27.836c0-3.606-2.914-6.52-6.52-6.52H165.97l-7.875-17.474     c-0.017-0.038-0.038-0.072-0.056-0.109c-0.043-0.09-0.089-0.178-0.136-0.266c-0.056-0.106-0.112-0.212-0.174-0.314     c-0.041-0.068-0.086-0.134-0.13-0.201c-0.076-0.116-0.152-0.231-0.234-0.341c-0.034-0.046-0.072-0.089-0.107-0.134     c-0.099-0.125-0.2-0.248-0.307-0.365c-0.025-0.027-0.052-0.053-0.078-0.08c-0.124-0.13-0.251-0.256-0.384-0.375     c-0.017-0.015-0.034-0.028-0.051-0.043c-0.148-0.129-0.3-0.252-0.458-0.366c-0.009-0.006-0.018-0.012-0.027-0.019     c-0.171-0.122-0.346-0.236-0.527-0.341c-0.003-0.002-0.006-0.003-0.009-0.005c-0.19-0.11-0.385-0.209-0.584-0.299     c-0.001-0.001-0.003-0.001-0.004-0.002c-0.002-0.001-0.005-0.002-0.007-0.003c-0.189-0.085-0.382-0.161-0.579-0.227     c-0.031-0.011-0.063-0.021-0.095-0.031c-0.163-0.053-0.328-0.099-0.496-0.139c-0.059-0.014-0.118-0.027-0.177-0.039     c-0.139-0.029-0.278-0.053-0.419-0.073c-0.082-0.012-0.165-0.022-0.247-0.03c-0.118-0.012-0.237-0.021-0.356-0.026     c-0.102-0.005-0.203-0.008-0.304-0.008c-0.101,0-0.203,0.003-0.304,0.008c-0.118,0.006-0.236,0.014-0.354,0.026     c-0.084,0.009-0.168,0.019-0.253,0.031c-0.137,0.019-0.272,0.043-0.407,0.071c-0.065,0.014-0.13,0.028-0.195,0.043     c-0.158,0.038-0.313,0.082-0.467,0.131c-0.043,0.014-0.086,0.027-0.13,0.042c-0.179,0.061-0.354,0.13-0.526,0.207     c-0.015,0.007-0.03,0.011-0.045,0.018c-0.009,0.004-0.017,0.009-0.026,0.013c-0.169,0.077-0.334,0.162-0.496,0.253     c-0.036,0.02-0.072,0.039-0.107,0.059c-0.137,0.081-0.27,0.168-0.401,0.259c-0.052,0.036-0.106,0.071-0.157,0.108     c-0.105,0.077-0.206,0.161-0.306,0.245c-0.068,0.057-0.138,0.112-0.203,0.171c-0.077,0.07-0.15,0.145-0.224,0.219     c-0.08,0.08-0.161,0.159-0.237,0.243c-0.054,0.06-0.105,0.124-0.157,0.187c-0.088,0.105-0.175,0.211-0.256,0.321     c-0.036,0.049-0.069,0.1-0.103,0.151c-0.091,0.132-0.179,0.265-0.26,0.402c-0.022,0.038-0.043,0.077-0.064,0.116     c-0.088,0.156-0.169,0.314-0.244,0.476c-0.006,0.012-0.013,0.024-0.019,0.036l-7.873,17.474H26.091     c-3.606,0-6.52,2.914-6.52,6.52v176.04H6.531c-3.606,0-6.52,2.914-6.52,6.52c0,3.606,2.914,6.52,6.52,6.52h19.56h22.683     L16.846,290.84c-1.428,3.293,0.085,7.133,3.397,8.567c0.841,0.365,1.721,0.535,2.582,0.535c2.53,0,4.929-1.474,5.985-3.938     l34.159-79.088h174.198l38.431,79.348c1.121,2.328,3.456,3.677,5.875,3.677c0.945,0,1.923-0.209,2.836-0.652     c3.24-1.565,4.597-5.47,3.038-8.711l-35.68-73.663h22.184h19.56c3.606,0,6.52-2.914,6.52-6.52S297.016,203.876,293.411,203.876z      M32.611,203.876V34.356h234.72v169.52H32.611z" fill="#3c4858"/>
			<path d="M174.16,105.163c-1.858-1.878-4.668-2.445-7.113-1.447c-2.445,1.011-4.036,3.397-4.036,6.038v74.563     c0,3.606,2.914,6.52,6.52,6.52h73.904c2.628,0,5.014-1.591,6.018-4.01c1.011-2.432,0.463-5.222-1.389-7.094L174.16,105.163z      M176.051,177.796c0,0,0-52.199,0-52.199l51.743,52.199H176.051z" fill="#3c4858"/>
		</g>
	</g>
</g>
</svg>
